<svg width="136" height="109" viewBox="0 0 136 109" fill="none" xmlns="http://www.w3.org/2000/svg">
<path d="M120.409 88.8043C119.3 89.8757 118.142 90.9176 116.933 91.9182C105.432 101.475 89.6655 107.65 72.2888 108.792C71.2651 108.86 70.2443 108.911 69.2235 108.946C44.54 109.775 21.0297 101.024 8.77741 85.1827C7.2169 83.1638 5.83826 81.0239 4.66495 78.7807C2.13353 73.9342 0.549555 68.58 0.12423 62.7654C-0.174965 58.6656 0.0714305 54.6869 0.807684 50.8498C5.55666 26.1184 30.6919 7.42598 61.1218 1.75892C99.7326 -5.4341 134.527 9.05821 135.973 52.1898C136.451 66.3574 130.494 79.0404 120.409 88.8072V88.8043Z" fill="#D2EEFF"/>
<path d="M60.8592 21C63.9384 15.6667 71.6364 15.6667 74.7156 21L108.491 79.5C111.57 84.8333 107.721 91.5 101.562 91.5H34.0124C27.854 91.5 24.005 84.8333 27.0842 79.5L60.8592 21Z" fill="white"/>
<path d="M60.8594 20.9998C63.9386 15.6667 71.6356 15.6667 74.7148 20.9998L108.49 79.4998C111.521 84.7499 107.839 91.2921 101.849 91.4949L101.563 91.4998H34.0117L33.7256 91.4949C27.8305 91.2953 24.1701 84.956 26.9443 79.7508L27.084 79.4998L60.8594 20.9998ZM34.0117 83.4998H101.563L67.7871 24.9998L34.0117 83.4998Z" fill="#FF0000"/>
</svg>
